<svg width="98" height="35" viewBox="0 0 98 35" fill="none" xmlns="http://www.w3.org/2000/svg">
<g filter="url(#filter0_d)">
<g clip-path="url(#clip0)">
<path d="M30.9947 6.65895C30.9632 6.36854 30.7827 6.11151 30.513 5.98563L17.8567 0.0793852C17.6306 -0.0261362 17.3693 -0.0261362 17.1431 0.0793852L4.4869 5.98563C4.21721 6.11151 4.03676 6.36849 4.00517 6.65895C4.00448 6.66501 4 6.7458 4 6.75023V21.094C4 21.439 4.21004 21.7493 4.5304 21.8773L17.1867 26.9398C17.2872 26.9801 17.3936 27.0002 17.5 27.0002C17.6064 27.0002 17.7128 26.9801 17.8133 26.9398L30.4696 21.8773C30.79 21.7493 31 21.439 31 21.094V6.75023C31 6.7458 30.9954 6.66496 30.9947 6.65895V6.65895ZM17.5 1.77506L28.0334 6.69064L23.9774 8.31307L13.2458 3.7604L17.5 1.77506ZM11.1882 4.72059L21.7533 9.20264L17.5 10.904L6.96663 6.69064L11.1882 4.72059ZM5.6875 7.99645L16.6562 12.3839V24.9102L5.6875 20.5227V7.99645ZM18.3438 24.9103V12.3839L29.3125 7.99645V20.5227L18.3438 24.9103Z" fill="#0A143A"/>
</g>
<path d="M48.1562 18.4844H41.9922L40.8203 22H37.082L43.4336 4.9375H46.6914L53.0781 22H49.3398L48.1562 18.4844ZM42.9414 15.6367H47.207L45.0625 9.25L42.9414 15.6367Z" fill="#0A143A"/>
<path d="M65.875 15.7773C65.875 17.8086 65.4414 19.3945 64.5742 20.5352C63.707 21.668 62.4961 22.2344 60.9414 22.2344C59.5664 22.2344 58.4688 21.707 57.6484 20.6523L57.4961 22H54.4492V4H57.8359V10.457C58.6172 9.54297 59.6445 9.08594 60.918 9.08594C62.4648 9.08594 63.6758 9.65625 64.5508 10.7969C65.4336 11.9297 65.875 13.5273 65.875 15.5898V15.7773ZM62.4883 15.5312C62.4883 14.25 62.2852 13.3164 61.8789 12.7305C61.4727 12.1367 60.8672 11.8398 60.0625 11.8398C58.9844 11.8398 58.2422 12.2812 57.8359 13.1641V18.168C58.25 19.0586 59 19.5039 60.0859 19.5039C61.1797 19.5039 61.8984 18.9648 62.2422 17.8867C62.4062 17.3711 62.4883 16.5859 62.4883 15.5312Z" fill="#0A143A"/>
<path d="M71.5469 22H68.1484V9.32031H71.5469V22ZM67.9492 6.03906C67.9492 5.53125 68.1172 5.11328 68.4531 4.78516C68.7969 4.45703 69.2617 4.29297 69.8477 4.29297C70.4258 4.29297 70.8867 4.45703 71.2305 4.78516C71.5742 5.11328 71.7461 5.53125 71.7461 6.03906C71.7461 6.55469 71.5703 6.97656 71.2188 7.30469C70.875 7.63281 70.418 7.79688 69.8477 7.79688C69.2773 7.79688 68.8164 7.63281 68.4648 7.30469C68.1211 6.97656 67.9492 6.55469 67.9492 6.03906Z" fill="#0A143A"/>
<path d="M78.4023 6.20312V9.32031H80.5703V11.8047H78.4023V18.1328C78.4023 18.6016 78.4922 18.9375 78.6719 19.1406C78.8516 19.3438 79.1953 19.4453 79.7031 19.4453C80.0781 19.4453 80.4102 19.418 80.6992 19.3633V21.9297C80.0352 22.1328 79.3516 22.2344 78.6484 22.2344C76.2734 22.2344 75.0625 21.0352 75.0156 18.6367V11.8047H73.1641V9.32031H75.0156V6.20312H78.4023Z" fill="#0A143A"/>
<path d="M81.5781 15.543C81.5781 14.2852 81.8203 13.1641 82.3047 12.1797C82.7891 11.1953 83.4844 10.4336 84.3906 9.89453C85.3047 9.35547 86.3633 9.08594 87.5664 9.08594C89.2773 9.08594 90.6719 9.60938 91.75 10.6562C92.8359 11.7031 93.4414 13.125 93.5664 14.9219L93.5898 15.7891C93.5898 17.7344 93.0469 19.2969 91.9609 20.4766C90.875 21.6484 89.418 22.2344 87.5898 22.2344C85.7617 22.2344 84.3008 21.6484 83.207 20.4766C82.1211 19.3047 81.5781 17.7109 81.5781 15.6953V15.543ZM84.9648 15.7891C84.9648 16.9922 85.1914 17.9141 85.6445 18.5547C86.0977 19.1875 86.7461 19.5039 87.5898 19.5039C88.4102 19.5039 89.0508 19.1914 89.5117 18.5664C89.9727 17.9336 90.2031 16.9258 90.2031 15.543C90.2031 14.3633 89.9727 13.4492 89.5117 12.8008C89.0508 12.1523 88.4023 11.8281 87.5664 11.8281C86.7383 11.8281 86.0977 12.1523 85.6445 12.8008C85.1914 13.4414 84.9648 14.4375 84.9648 15.7891Z" fill="#0A143A"/>
</g>
<defs>
<filter id="filter0_d" x="0" y="0" width="97.5898" height="35" filterUnits="userSpaceOnUse" color-interpolation-filters="sRGB">
<feFlood flood-opacity="0" result="BackgroundImageFix"/>
<feColorMatrix in="SourceAlpha" type="matrix" values="0 0 0 0 0 0 0 0 0 0 0 0 0 0 0 0 0 0 127 0" result="hardAlpha"/>
<feOffset dy="4"/>
<feGaussianBlur stdDeviation="2"/>
<feComposite in2="hardAlpha" operator="out"/>
<feColorMatrix type="matrix" values="0 0 0 0 0 0 0 0 0 0 0 0 0 0 0 0 0 0 0.25 0"/>
<feBlend mode="normal" in2="BackgroundImageFix" result="effect1_dropShadow"/>
<feBlend mode="normal" in="SourceGraphic" in2="effect1_dropShadow" result="shape"/>
</filter>
<clipPath id="clip0">
<rect width="27" height="27" fill="white" transform="translate(4)"/>
</clipPath>
</defs>
</svg>
